%TF.GenerationSoftware,KiCad,Pcbnew,9.0.7*%
%TF.CreationDate,2026-07-30T10:33:43-07:00*%
%TF.ProjectId,XEBookButtonBar,5845426f-6f6b-4427-9574-746f6e426172,rev?*%
%TF.SameCoordinates,Original*%
%TF.FileFunction,Drillmap*%
%TF.FilePolarity,Positive*%
%FSLAX45Y45*%
G04 Gerber Fmt 4.5, Leading zero omitted, Abs format (unit mm)*
G04 Created by KiCad (PCBNEW 9.0.7) date 2026-07-30 10:33:43*
%MOMM*%
%LPD*%
G01*
G04 APERTURE LIST*
%ADD10C,0.050000*%
%ADD11C,0.200000*%
%ADD12C,0.100000*%
G04 APERTURE END LIST*
D10*
X5100000Y-3250000D02*
X7650000Y-3250000D01*
X7650000Y-2250000D01*
X11400000Y-2250000D01*
X11400000Y-3450000D01*
X2350000Y-3450000D01*
X2350000Y-2250000D01*
X5100000Y-2250000D01*
X5100000Y-3250000D01*
D11*
D12*
X4542860Y-3079000D02*
X4572860Y-3109000D01*
X4572860Y-3079000D02*
X4542860Y-3109000D01*
X7769450Y-3335000D02*
X7799450Y-3365000D01*
X7799450Y-3335000D02*
X7769450Y-3365000D01*
X8513160Y-3079000D02*
X8543160Y-3109000D01*
X8543160Y-3079000D02*
X8513160Y-3109000D01*
X4840000Y-2700000D02*
G75*
G02*
X4760000Y-2700000I-40000J0D01*
G01*
X4760000Y-2700000D02*
G75*
G02*
X4840000Y-2700000I40000J0D01*
G01*
X4840000Y-2900000D02*
G75*
G02*
X4760000Y-2900000I-40000J0D01*
G01*
X4760000Y-2900000D02*
G75*
G02*
X4840000Y-2900000I40000J0D01*
G01*
X4840000Y-3100000D02*
G75*
G02*
X4760000Y-3100000I-40000J0D01*
G01*
X4760000Y-3100000D02*
G75*
G02*
X4840000Y-3100000I40000J0D01*
G01*
X7980000Y-2650000D02*
G75*
G02*
X7900000Y-2650000I-40000J0D01*
G01*
X7900000Y-2650000D02*
G75*
G02*
X7980000Y-2650000I40000J0D01*
G01*
X7980000Y-2850000D02*
G75*
G02*
X7900000Y-2850000I-40000J0D01*
G01*
X7900000Y-2850000D02*
G75*
G02*
X7980000Y-2850000I40000J0D01*
G01*
X7980000Y-3050000D02*
G75*
G02*
X7900000Y-3050000I-40000J0D01*
G01*
X7900000Y-3050000D02*
G75*
G02*
X7980000Y-3050000I40000J0D01*
G01*
X7980000Y-3250000D02*
G75*
G02*
X7900000Y-3250000I-40000J0D01*
G01*
X7900000Y-3250000D02*
G75*
G02*
X7980000Y-3250000I40000J0D01*
G01*
D11*
X2608277Y-3763984D02*
X2608277Y-3563984D01*
X2608277Y-3563984D02*
X2655896Y-3563984D01*
X2655896Y-3563984D02*
X2684467Y-3573508D01*
X2684467Y-3573508D02*
X2703515Y-3592555D01*
X2703515Y-3592555D02*
X2713039Y-3611603D01*
X2713039Y-3611603D02*
X2722563Y-3649698D01*
X2722563Y-3649698D02*
X2722563Y-3678269D01*
X2722563Y-3678269D02*
X2713039Y-3716365D01*
X2713039Y-3716365D02*
X2703515Y-3735412D01*
X2703515Y-3735412D02*
X2684467Y-3754460D01*
X2684467Y-3754460D02*
X2655896Y-3763984D01*
X2655896Y-3763984D02*
X2608277Y-3763984D01*
X2808277Y-3763984D02*
X2808277Y-3630650D01*
X2808277Y-3668746D02*
X2817801Y-3649698D01*
X2817801Y-3649698D02*
X2827324Y-3640174D01*
X2827324Y-3640174D02*
X2846372Y-3630650D01*
X2846372Y-3630650D02*
X2865420Y-3630650D01*
X2932086Y-3763984D02*
X2932086Y-3630650D01*
X2932086Y-3563984D02*
X2922562Y-3573508D01*
X2922562Y-3573508D02*
X2932086Y-3583031D01*
X2932086Y-3583031D02*
X2941610Y-3573508D01*
X2941610Y-3573508D02*
X2932086Y-3563984D01*
X2932086Y-3563984D02*
X2932086Y-3583031D01*
X3055896Y-3763984D02*
X3036848Y-3754460D01*
X3036848Y-3754460D02*
X3027324Y-3735412D01*
X3027324Y-3735412D02*
X3027324Y-3563984D01*
X3160658Y-3763984D02*
X3141610Y-3754460D01*
X3141610Y-3754460D02*
X3132086Y-3735412D01*
X3132086Y-3735412D02*
X3132086Y-3563984D01*
X3389229Y-3763984D02*
X3389229Y-3563984D01*
X3389229Y-3563984D02*
X3455896Y-3706841D01*
X3455896Y-3706841D02*
X3522562Y-3563984D01*
X3522562Y-3563984D02*
X3522562Y-3763984D01*
X3703515Y-3763984D02*
X3703515Y-3659222D01*
X3703515Y-3659222D02*
X3693991Y-3640174D01*
X3693991Y-3640174D02*
X3674943Y-3630650D01*
X3674943Y-3630650D02*
X3636848Y-3630650D01*
X3636848Y-3630650D02*
X3617801Y-3640174D01*
X3703515Y-3754460D02*
X3684467Y-3763984D01*
X3684467Y-3763984D02*
X3636848Y-3763984D01*
X3636848Y-3763984D02*
X3617801Y-3754460D01*
X3617801Y-3754460D02*
X3608277Y-3735412D01*
X3608277Y-3735412D02*
X3608277Y-3716365D01*
X3608277Y-3716365D02*
X3617801Y-3697317D01*
X3617801Y-3697317D02*
X3636848Y-3687793D01*
X3636848Y-3687793D02*
X3684467Y-3687793D01*
X3684467Y-3687793D02*
X3703515Y-3678269D01*
X3798753Y-3630650D02*
X3798753Y-3830650D01*
X3798753Y-3640174D02*
X3817801Y-3630650D01*
X3817801Y-3630650D02*
X3855896Y-3630650D01*
X3855896Y-3630650D02*
X3874943Y-3640174D01*
X3874943Y-3640174D02*
X3884467Y-3649698D01*
X3884467Y-3649698D02*
X3893991Y-3668746D01*
X3893991Y-3668746D02*
X3893991Y-3725888D01*
X3893991Y-3725888D02*
X3884467Y-3744936D01*
X3884467Y-3744936D02*
X3874943Y-3754460D01*
X3874943Y-3754460D02*
X3855896Y-3763984D01*
X3855896Y-3763984D02*
X3817801Y-3763984D01*
X3817801Y-3763984D02*
X3798753Y-3754460D01*
X3979705Y-3744936D02*
X3989229Y-3754460D01*
X3989229Y-3754460D02*
X3979705Y-3763984D01*
X3979705Y-3763984D02*
X3970182Y-3754460D01*
X3970182Y-3754460D02*
X3979705Y-3744936D01*
X3979705Y-3744936D02*
X3979705Y-3763984D01*
X3979705Y-3640174D02*
X3989229Y-3649698D01*
X3989229Y-3649698D02*
X3979705Y-3659222D01*
X3979705Y-3659222D02*
X3970182Y-3649698D01*
X3970182Y-3649698D02*
X3979705Y-3640174D01*
X3979705Y-3640174D02*
X3979705Y-3659222D01*
D12*
X2317500Y-4077500D02*
X2347500Y-4107500D01*
X2347500Y-4077500D02*
X2317500Y-4107500D01*
D11*
X2646372Y-3983984D02*
X2665420Y-3983984D01*
X2665420Y-3983984D02*
X2684467Y-3993508D01*
X2684467Y-3993508D02*
X2693991Y-4003031D01*
X2693991Y-4003031D02*
X2703515Y-4022079D01*
X2703515Y-4022079D02*
X2713039Y-4060174D01*
X2713039Y-4060174D02*
X2713039Y-4107793D01*
X2713039Y-4107793D02*
X2703515Y-4145888D01*
X2703515Y-4145888D02*
X2693991Y-4164936D01*
X2693991Y-4164936D02*
X2684467Y-4174460D01*
X2684467Y-4174460D02*
X2665420Y-4183984D01*
X2665420Y-4183984D02*
X2646372Y-4183984D01*
X2646372Y-4183984D02*
X2627324Y-4174460D01*
X2627324Y-4174460D02*
X2617801Y-4164936D01*
X2617801Y-4164936D02*
X2608277Y-4145888D01*
X2608277Y-4145888D02*
X2598753Y-4107793D01*
X2598753Y-4107793D02*
X2598753Y-4060174D01*
X2598753Y-4060174D02*
X2608277Y-4022079D01*
X2608277Y-4022079D02*
X2617801Y-4003031D01*
X2617801Y-4003031D02*
X2627324Y-3993508D01*
X2627324Y-3993508D02*
X2646372Y-3983984D01*
X2798753Y-4164936D02*
X2808277Y-4174460D01*
X2808277Y-4174460D02*
X2798753Y-4183984D01*
X2798753Y-4183984D02*
X2789229Y-4174460D01*
X2789229Y-4174460D02*
X2798753Y-4164936D01*
X2798753Y-4164936D02*
X2798753Y-4183984D01*
X2874943Y-3983984D02*
X2998753Y-3983984D01*
X2998753Y-3983984D02*
X2932086Y-4060174D01*
X2932086Y-4060174D02*
X2960658Y-4060174D01*
X2960658Y-4060174D02*
X2979705Y-4069698D01*
X2979705Y-4069698D02*
X2989229Y-4079222D01*
X2989229Y-4079222D02*
X2998753Y-4098269D01*
X2998753Y-4098269D02*
X2998753Y-4145888D01*
X2998753Y-4145888D02*
X2989229Y-4164936D01*
X2989229Y-4164936D02*
X2979705Y-4174460D01*
X2979705Y-4174460D02*
X2960658Y-4183984D01*
X2960658Y-4183984D02*
X2903515Y-4183984D01*
X2903515Y-4183984D02*
X2884467Y-4174460D01*
X2884467Y-4174460D02*
X2874943Y-4164936D01*
X3122562Y-3983984D02*
X3141610Y-3983984D01*
X3141610Y-3983984D02*
X3160658Y-3993508D01*
X3160658Y-3993508D02*
X3170182Y-4003031D01*
X3170182Y-4003031D02*
X3179705Y-4022079D01*
X3179705Y-4022079D02*
X3189229Y-4060174D01*
X3189229Y-4060174D02*
X3189229Y-4107793D01*
X3189229Y-4107793D02*
X3179705Y-4145888D01*
X3179705Y-4145888D02*
X3170182Y-4164936D01*
X3170182Y-4164936D02*
X3160658Y-4174460D01*
X3160658Y-4174460D02*
X3141610Y-4183984D01*
X3141610Y-4183984D02*
X3122562Y-4183984D01*
X3122562Y-4183984D02*
X3103515Y-4174460D01*
X3103515Y-4174460D02*
X3093991Y-4164936D01*
X3093991Y-4164936D02*
X3084467Y-4145888D01*
X3084467Y-4145888D02*
X3074943Y-4107793D01*
X3074943Y-4107793D02*
X3074943Y-4060174D01*
X3074943Y-4060174D02*
X3084467Y-4022079D01*
X3084467Y-4022079D02*
X3093991Y-4003031D01*
X3093991Y-4003031D02*
X3103515Y-3993508D01*
X3103515Y-3993508D02*
X3122562Y-3983984D01*
X3313039Y-3983984D02*
X3332086Y-3983984D01*
X3332086Y-3983984D02*
X3351134Y-3993508D01*
X3351134Y-3993508D02*
X3360658Y-4003031D01*
X3360658Y-4003031D02*
X3370182Y-4022079D01*
X3370182Y-4022079D02*
X3379705Y-4060174D01*
X3379705Y-4060174D02*
X3379705Y-4107793D01*
X3379705Y-4107793D02*
X3370182Y-4145888D01*
X3370182Y-4145888D02*
X3360658Y-4164936D01*
X3360658Y-4164936D02*
X3351134Y-4174460D01*
X3351134Y-4174460D02*
X3332086Y-4183984D01*
X3332086Y-4183984D02*
X3313039Y-4183984D01*
X3313039Y-4183984D02*
X3293991Y-4174460D01*
X3293991Y-4174460D02*
X3284467Y-4164936D01*
X3284467Y-4164936D02*
X3274943Y-4145888D01*
X3274943Y-4145888D02*
X3265420Y-4107793D01*
X3265420Y-4107793D02*
X3265420Y-4060174D01*
X3265420Y-4060174D02*
X3274943Y-4022079D01*
X3274943Y-4022079D02*
X3284467Y-4003031D01*
X3284467Y-4003031D02*
X3293991Y-3993508D01*
X3293991Y-3993508D02*
X3313039Y-3983984D01*
X3465420Y-4183984D02*
X3465420Y-4050650D01*
X3465420Y-4069698D02*
X3474943Y-4060174D01*
X3474943Y-4060174D02*
X3493991Y-4050650D01*
X3493991Y-4050650D02*
X3522563Y-4050650D01*
X3522563Y-4050650D02*
X3541610Y-4060174D01*
X3541610Y-4060174D02*
X3551134Y-4079222D01*
X3551134Y-4079222D02*
X3551134Y-4183984D01*
X3551134Y-4079222D02*
X3560658Y-4060174D01*
X3560658Y-4060174D02*
X3579705Y-4050650D01*
X3579705Y-4050650D02*
X3608277Y-4050650D01*
X3608277Y-4050650D02*
X3627324Y-4060174D01*
X3627324Y-4060174D02*
X3636848Y-4079222D01*
X3636848Y-4079222D02*
X3636848Y-4183984D01*
X3732086Y-4183984D02*
X3732086Y-4050650D01*
X3732086Y-4069698D02*
X3741610Y-4060174D01*
X3741610Y-4060174D02*
X3760658Y-4050650D01*
X3760658Y-4050650D02*
X3789229Y-4050650D01*
X3789229Y-4050650D02*
X3808277Y-4060174D01*
X3808277Y-4060174D02*
X3817801Y-4079222D01*
X3817801Y-4079222D02*
X3817801Y-4183984D01*
X3817801Y-4079222D02*
X3827324Y-4060174D01*
X3827324Y-4060174D02*
X3846372Y-4050650D01*
X3846372Y-4050650D02*
X3874943Y-4050650D01*
X3874943Y-4050650D02*
X3893991Y-4060174D01*
X3893991Y-4060174D02*
X3903515Y-4079222D01*
X3903515Y-4079222D02*
X3903515Y-4183984D01*
X4293991Y-3974460D02*
X4122563Y-4231603D01*
X4551134Y-3983984D02*
X4570182Y-3983984D01*
X4570182Y-3983984D02*
X4589229Y-3993508D01*
X4589229Y-3993508D02*
X4598753Y-4003031D01*
X4598753Y-4003031D02*
X4608277Y-4022079D01*
X4608277Y-4022079D02*
X4617801Y-4060174D01*
X4617801Y-4060174D02*
X4617801Y-4107793D01*
X4617801Y-4107793D02*
X4608277Y-4145888D01*
X4608277Y-4145888D02*
X4598753Y-4164936D01*
X4598753Y-4164936D02*
X4589229Y-4174460D01*
X4589229Y-4174460D02*
X4570182Y-4183984D01*
X4570182Y-4183984D02*
X4551134Y-4183984D01*
X4551134Y-4183984D02*
X4532087Y-4174460D01*
X4532087Y-4174460D02*
X4522563Y-4164936D01*
X4522563Y-4164936D02*
X4513039Y-4145888D01*
X4513039Y-4145888D02*
X4503515Y-4107793D01*
X4503515Y-4107793D02*
X4503515Y-4060174D01*
X4503515Y-4060174D02*
X4513039Y-4022079D01*
X4513039Y-4022079D02*
X4522563Y-4003031D01*
X4522563Y-4003031D02*
X4532087Y-3993508D01*
X4532087Y-3993508D02*
X4551134Y-3983984D01*
X4703515Y-4164936D02*
X4713039Y-4174460D01*
X4713039Y-4174460D02*
X4703515Y-4183984D01*
X4703515Y-4183984D02*
X4693991Y-4174460D01*
X4693991Y-4174460D02*
X4703515Y-4164936D01*
X4703515Y-4164936D02*
X4703515Y-4183984D01*
X4836848Y-3983984D02*
X4855896Y-3983984D01*
X4855896Y-3983984D02*
X4874944Y-3993508D01*
X4874944Y-3993508D02*
X4884468Y-4003031D01*
X4884468Y-4003031D02*
X4893991Y-4022079D01*
X4893991Y-4022079D02*
X4903515Y-4060174D01*
X4903515Y-4060174D02*
X4903515Y-4107793D01*
X4903515Y-4107793D02*
X4893991Y-4145888D01*
X4893991Y-4145888D02*
X4884468Y-4164936D01*
X4884468Y-4164936D02*
X4874944Y-4174460D01*
X4874944Y-4174460D02*
X4855896Y-4183984D01*
X4855896Y-4183984D02*
X4836848Y-4183984D01*
X4836848Y-4183984D02*
X4817801Y-4174460D01*
X4817801Y-4174460D02*
X4808277Y-4164936D01*
X4808277Y-4164936D02*
X4798753Y-4145888D01*
X4798753Y-4145888D02*
X4789229Y-4107793D01*
X4789229Y-4107793D02*
X4789229Y-4060174D01*
X4789229Y-4060174D02*
X4798753Y-4022079D01*
X4798753Y-4022079D02*
X4808277Y-4003031D01*
X4808277Y-4003031D02*
X4817801Y-3993508D01*
X4817801Y-3993508D02*
X4836848Y-3983984D01*
X5093991Y-4183984D02*
X4979706Y-4183984D01*
X5036848Y-4183984D02*
X5036848Y-3983984D01*
X5036848Y-3983984D02*
X5017801Y-4012555D01*
X5017801Y-4012555D02*
X4998753Y-4031603D01*
X4998753Y-4031603D02*
X4979706Y-4041127D01*
X5284468Y-4183984D02*
X5170182Y-4183984D01*
X5227325Y-4183984D02*
X5227325Y-3983984D01*
X5227325Y-3983984D02*
X5208277Y-4012555D01*
X5208277Y-4012555D02*
X5189229Y-4031603D01*
X5189229Y-4031603D02*
X5170182Y-4041127D01*
X5398753Y-4069698D02*
X5379706Y-4060174D01*
X5379706Y-4060174D02*
X5370182Y-4050650D01*
X5370182Y-4050650D02*
X5360658Y-4031603D01*
X5360658Y-4031603D02*
X5360658Y-4022079D01*
X5360658Y-4022079D02*
X5370182Y-4003031D01*
X5370182Y-4003031D02*
X5379706Y-3993508D01*
X5379706Y-3993508D02*
X5398753Y-3983984D01*
X5398753Y-3983984D02*
X5436849Y-3983984D01*
X5436849Y-3983984D02*
X5455896Y-3993508D01*
X5455896Y-3993508D02*
X5465420Y-4003031D01*
X5465420Y-4003031D02*
X5474944Y-4022079D01*
X5474944Y-4022079D02*
X5474944Y-4031603D01*
X5474944Y-4031603D02*
X5465420Y-4050650D01*
X5465420Y-4050650D02*
X5455896Y-4060174D01*
X5455896Y-4060174D02*
X5436849Y-4069698D01*
X5436849Y-4069698D02*
X5398753Y-4069698D01*
X5398753Y-4069698D02*
X5379706Y-4079222D01*
X5379706Y-4079222D02*
X5370182Y-4088746D01*
X5370182Y-4088746D02*
X5360658Y-4107793D01*
X5360658Y-4107793D02*
X5360658Y-4145888D01*
X5360658Y-4145888D02*
X5370182Y-4164936D01*
X5370182Y-4164936D02*
X5379706Y-4174460D01*
X5379706Y-4174460D02*
X5398753Y-4183984D01*
X5398753Y-4183984D02*
X5436849Y-4183984D01*
X5436849Y-4183984D02*
X5455896Y-4174460D01*
X5455896Y-4174460D02*
X5465420Y-4164936D01*
X5465420Y-4164936D02*
X5474944Y-4145888D01*
X5474944Y-4145888D02*
X5474944Y-4107793D01*
X5474944Y-4107793D02*
X5465420Y-4088746D01*
X5465420Y-4088746D02*
X5455896Y-4079222D01*
X5455896Y-4079222D02*
X5436849Y-4069698D01*
X5551134Y-3983984D02*
X5551134Y-4022079D01*
X5627325Y-3983984D02*
X5627325Y-4022079D01*
X5922563Y-4260174D02*
X5913039Y-4250650D01*
X5913039Y-4250650D02*
X5893991Y-4222079D01*
X5893991Y-4222079D02*
X5884468Y-4203031D01*
X5884468Y-4203031D02*
X5874944Y-4174460D01*
X5874944Y-4174460D02*
X5865420Y-4126841D01*
X5865420Y-4126841D02*
X5865420Y-4088746D01*
X5865420Y-4088746D02*
X5874944Y-4041127D01*
X5874944Y-4041127D02*
X5884468Y-4012555D01*
X5884468Y-4012555D02*
X5893991Y-3993508D01*
X5893991Y-3993508D02*
X5913039Y-3964936D01*
X5913039Y-3964936D02*
X5922563Y-3955412D01*
X5979706Y-3983984D02*
X6103515Y-3983984D01*
X6103515Y-3983984D02*
X6036848Y-4060174D01*
X6036848Y-4060174D02*
X6065420Y-4060174D01*
X6065420Y-4060174D02*
X6084468Y-4069698D01*
X6084468Y-4069698D02*
X6093991Y-4079222D01*
X6093991Y-4079222D02*
X6103515Y-4098269D01*
X6103515Y-4098269D02*
X6103515Y-4145888D01*
X6103515Y-4145888D02*
X6093991Y-4164936D01*
X6093991Y-4164936D02*
X6084468Y-4174460D01*
X6084468Y-4174460D02*
X6065420Y-4183984D01*
X6065420Y-4183984D02*
X6008277Y-4183984D01*
X6008277Y-4183984D02*
X5989229Y-4174460D01*
X5989229Y-4174460D02*
X5979706Y-4164936D01*
X6341610Y-4183984D02*
X6341610Y-3983984D01*
X6427325Y-4183984D02*
X6427325Y-4079222D01*
X6427325Y-4079222D02*
X6417801Y-4060174D01*
X6417801Y-4060174D02*
X6398753Y-4050650D01*
X6398753Y-4050650D02*
X6370182Y-4050650D01*
X6370182Y-4050650D02*
X6351134Y-4060174D01*
X6351134Y-4060174D02*
X6341610Y-4069698D01*
X6551134Y-4183984D02*
X6532087Y-4174460D01*
X6532087Y-4174460D02*
X6522563Y-4164936D01*
X6522563Y-4164936D02*
X6513039Y-4145888D01*
X6513039Y-4145888D02*
X6513039Y-4088746D01*
X6513039Y-4088746D02*
X6522563Y-4069698D01*
X6522563Y-4069698D02*
X6532087Y-4060174D01*
X6532087Y-4060174D02*
X6551134Y-4050650D01*
X6551134Y-4050650D02*
X6579706Y-4050650D01*
X6579706Y-4050650D02*
X6598753Y-4060174D01*
X6598753Y-4060174D02*
X6608277Y-4069698D01*
X6608277Y-4069698D02*
X6617801Y-4088746D01*
X6617801Y-4088746D02*
X6617801Y-4145888D01*
X6617801Y-4145888D02*
X6608277Y-4164936D01*
X6608277Y-4164936D02*
X6598753Y-4174460D01*
X6598753Y-4174460D02*
X6579706Y-4183984D01*
X6579706Y-4183984D02*
X6551134Y-4183984D01*
X6732087Y-4183984D02*
X6713039Y-4174460D01*
X6713039Y-4174460D02*
X6703515Y-4155412D01*
X6703515Y-4155412D02*
X6703515Y-3983984D01*
X6884468Y-4174460D02*
X6865420Y-4183984D01*
X6865420Y-4183984D02*
X6827325Y-4183984D01*
X6827325Y-4183984D02*
X6808277Y-4174460D01*
X6808277Y-4174460D02*
X6798753Y-4155412D01*
X6798753Y-4155412D02*
X6798753Y-4079222D01*
X6798753Y-4079222D02*
X6808277Y-4060174D01*
X6808277Y-4060174D02*
X6827325Y-4050650D01*
X6827325Y-4050650D02*
X6865420Y-4050650D01*
X6865420Y-4050650D02*
X6884468Y-4060174D01*
X6884468Y-4060174D02*
X6893991Y-4079222D01*
X6893991Y-4079222D02*
X6893991Y-4098269D01*
X6893991Y-4098269D02*
X6798753Y-4117317D01*
X6970182Y-4174460D02*
X6989230Y-4183984D01*
X6989230Y-4183984D02*
X7027325Y-4183984D01*
X7027325Y-4183984D02*
X7046372Y-4174460D01*
X7046372Y-4174460D02*
X7055896Y-4155412D01*
X7055896Y-4155412D02*
X7055896Y-4145888D01*
X7055896Y-4145888D02*
X7046372Y-4126841D01*
X7046372Y-4126841D02*
X7027325Y-4117317D01*
X7027325Y-4117317D02*
X6998753Y-4117317D01*
X6998753Y-4117317D02*
X6979706Y-4107793D01*
X6979706Y-4107793D02*
X6970182Y-4088746D01*
X6970182Y-4088746D02*
X6970182Y-4079222D01*
X6970182Y-4079222D02*
X6979706Y-4060174D01*
X6979706Y-4060174D02*
X6998753Y-4050650D01*
X6998753Y-4050650D02*
X7027325Y-4050650D01*
X7027325Y-4050650D02*
X7046372Y-4060174D01*
X7122563Y-4260174D02*
X7132087Y-4250650D01*
X7132087Y-4250650D02*
X7151134Y-4222079D01*
X7151134Y-4222079D02*
X7160658Y-4203031D01*
X7160658Y-4203031D02*
X7170182Y-4174460D01*
X7170182Y-4174460D02*
X7179706Y-4126841D01*
X7179706Y-4126841D02*
X7179706Y-4088746D01*
X7179706Y-4088746D02*
X7170182Y-4041127D01*
X7170182Y-4041127D02*
X7160658Y-4012555D01*
X7160658Y-4012555D02*
X7151134Y-3993508D01*
X7151134Y-3993508D02*
X7132087Y-3964936D01*
X7132087Y-3964936D02*
X7122563Y-3955412D01*
D12*
X2347500Y-4356500D02*
G75*
G02*
X2267500Y-4356500I-40000J0D01*
G01*
X2267500Y-4356500D02*
G75*
G02*
X2347500Y-4356500I40000J0D01*
G01*
D11*
X2646372Y-4247984D02*
X2665420Y-4247984D01*
X2665420Y-4247984D02*
X2684467Y-4257508D01*
X2684467Y-4257508D02*
X2693991Y-4267031D01*
X2693991Y-4267031D02*
X2703515Y-4286079D01*
X2703515Y-4286079D02*
X2713039Y-4324174D01*
X2713039Y-4324174D02*
X2713039Y-4371793D01*
X2713039Y-4371793D02*
X2703515Y-4409889D01*
X2703515Y-4409889D02*
X2693991Y-4428936D01*
X2693991Y-4428936D02*
X2684467Y-4438460D01*
X2684467Y-4438460D02*
X2665420Y-4447984D01*
X2665420Y-4447984D02*
X2646372Y-4447984D01*
X2646372Y-4447984D02*
X2627324Y-4438460D01*
X2627324Y-4438460D02*
X2617801Y-4428936D01*
X2617801Y-4428936D02*
X2608277Y-4409889D01*
X2608277Y-4409889D02*
X2598753Y-4371793D01*
X2598753Y-4371793D02*
X2598753Y-4324174D01*
X2598753Y-4324174D02*
X2608277Y-4286079D01*
X2608277Y-4286079D02*
X2617801Y-4267031D01*
X2617801Y-4267031D02*
X2627324Y-4257508D01*
X2627324Y-4257508D02*
X2646372Y-4247984D01*
X2798753Y-4428936D02*
X2808277Y-4438460D01*
X2808277Y-4438460D02*
X2798753Y-4447984D01*
X2798753Y-4447984D02*
X2789229Y-4438460D01*
X2789229Y-4438460D02*
X2798753Y-4428936D01*
X2798753Y-4428936D02*
X2798753Y-4447984D01*
X2922562Y-4333698D02*
X2903515Y-4324174D01*
X2903515Y-4324174D02*
X2893991Y-4314650D01*
X2893991Y-4314650D02*
X2884467Y-4295603D01*
X2884467Y-4295603D02*
X2884467Y-4286079D01*
X2884467Y-4286079D02*
X2893991Y-4267031D01*
X2893991Y-4267031D02*
X2903515Y-4257508D01*
X2903515Y-4257508D02*
X2922562Y-4247984D01*
X2922562Y-4247984D02*
X2960658Y-4247984D01*
X2960658Y-4247984D02*
X2979705Y-4257508D01*
X2979705Y-4257508D02*
X2989229Y-4267031D01*
X2989229Y-4267031D02*
X2998753Y-4286079D01*
X2998753Y-4286079D02*
X2998753Y-4295603D01*
X2998753Y-4295603D02*
X2989229Y-4314650D01*
X2989229Y-4314650D02*
X2979705Y-4324174D01*
X2979705Y-4324174D02*
X2960658Y-4333698D01*
X2960658Y-4333698D02*
X2922562Y-4333698D01*
X2922562Y-4333698D02*
X2903515Y-4343222D01*
X2903515Y-4343222D02*
X2893991Y-4352746D01*
X2893991Y-4352746D02*
X2884467Y-4371793D01*
X2884467Y-4371793D02*
X2884467Y-4409889D01*
X2884467Y-4409889D02*
X2893991Y-4428936D01*
X2893991Y-4428936D02*
X2903515Y-4438460D01*
X2903515Y-4438460D02*
X2922562Y-4447984D01*
X2922562Y-4447984D02*
X2960658Y-4447984D01*
X2960658Y-4447984D02*
X2979705Y-4438460D01*
X2979705Y-4438460D02*
X2989229Y-4428936D01*
X2989229Y-4428936D02*
X2998753Y-4409889D01*
X2998753Y-4409889D02*
X2998753Y-4371793D01*
X2998753Y-4371793D02*
X2989229Y-4352746D01*
X2989229Y-4352746D02*
X2979705Y-4343222D01*
X2979705Y-4343222D02*
X2960658Y-4333698D01*
X3122562Y-4247984D02*
X3141610Y-4247984D01*
X3141610Y-4247984D02*
X3160658Y-4257508D01*
X3160658Y-4257508D02*
X3170182Y-4267031D01*
X3170182Y-4267031D02*
X3179705Y-4286079D01*
X3179705Y-4286079D02*
X3189229Y-4324174D01*
X3189229Y-4324174D02*
X3189229Y-4371793D01*
X3189229Y-4371793D02*
X3179705Y-4409889D01*
X3179705Y-4409889D02*
X3170182Y-4428936D01*
X3170182Y-4428936D02*
X3160658Y-4438460D01*
X3160658Y-4438460D02*
X3141610Y-4447984D01*
X3141610Y-4447984D02*
X3122562Y-4447984D01*
X3122562Y-4447984D02*
X3103515Y-4438460D01*
X3103515Y-4438460D02*
X3093991Y-4428936D01*
X3093991Y-4428936D02*
X3084467Y-4409889D01*
X3084467Y-4409889D02*
X3074943Y-4371793D01*
X3074943Y-4371793D02*
X3074943Y-4324174D01*
X3074943Y-4324174D02*
X3084467Y-4286079D01*
X3084467Y-4286079D02*
X3093991Y-4267031D01*
X3093991Y-4267031D02*
X3103515Y-4257508D01*
X3103515Y-4257508D02*
X3122562Y-4247984D01*
X3313039Y-4247984D02*
X3332086Y-4247984D01*
X3332086Y-4247984D02*
X3351134Y-4257508D01*
X3351134Y-4257508D02*
X3360658Y-4267031D01*
X3360658Y-4267031D02*
X3370182Y-4286079D01*
X3370182Y-4286079D02*
X3379705Y-4324174D01*
X3379705Y-4324174D02*
X3379705Y-4371793D01*
X3379705Y-4371793D02*
X3370182Y-4409889D01*
X3370182Y-4409889D02*
X3360658Y-4428936D01*
X3360658Y-4428936D02*
X3351134Y-4438460D01*
X3351134Y-4438460D02*
X3332086Y-4447984D01*
X3332086Y-4447984D02*
X3313039Y-4447984D01*
X3313039Y-4447984D02*
X3293991Y-4438460D01*
X3293991Y-4438460D02*
X3284467Y-4428936D01*
X3284467Y-4428936D02*
X3274943Y-4409889D01*
X3274943Y-4409889D02*
X3265420Y-4371793D01*
X3265420Y-4371793D02*
X3265420Y-4324174D01*
X3265420Y-4324174D02*
X3274943Y-4286079D01*
X3274943Y-4286079D02*
X3284467Y-4267031D01*
X3284467Y-4267031D02*
X3293991Y-4257508D01*
X3293991Y-4257508D02*
X3313039Y-4247984D01*
X3465420Y-4447984D02*
X3465420Y-4314650D01*
X3465420Y-4333698D02*
X3474943Y-4324174D01*
X3474943Y-4324174D02*
X3493991Y-4314650D01*
X3493991Y-4314650D02*
X3522563Y-4314650D01*
X3522563Y-4314650D02*
X3541610Y-4324174D01*
X3541610Y-4324174D02*
X3551134Y-4343222D01*
X3551134Y-4343222D02*
X3551134Y-4447984D01*
X3551134Y-4343222D02*
X3560658Y-4324174D01*
X3560658Y-4324174D02*
X3579705Y-4314650D01*
X3579705Y-4314650D02*
X3608277Y-4314650D01*
X3608277Y-4314650D02*
X3627324Y-4324174D01*
X3627324Y-4324174D02*
X3636848Y-4343222D01*
X3636848Y-4343222D02*
X3636848Y-4447984D01*
X3732086Y-4447984D02*
X3732086Y-4314650D01*
X3732086Y-4333698D02*
X3741610Y-4324174D01*
X3741610Y-4324174D02*
X3760658Y-4314650D01*
X3760658Y-4314650D02*
X3789229Y-4314650D01*
X3789229Y-4314650D02*
X3808277Y-4324174D01*
X3808277Y-4324174D02*
X3817801Y-4343222D01*
X3817801Y-4343222D02*
X3817801Y-4447984D01*
X3817801Y-4343222D02*
X3827324Y-4324174D01*
X3827324Y-4324174D02*
X3846372Y-4314650D01*
X3846372Y-4314650D02*
X3874943Y-4314650D01*
X3874943Y-4314650D02*
X3893991Y-4324174D01*
X3893991Y-4324174D02*
X3903515Y-4343222D01*
X3903515Y-4343222D02*
X3903515Y-4447984D01*
X4293991Y-4238460D02*
X4122563Y-4495603D01*
X4551134Y-4247984D02*
X4570182Y-4247984D01*
X4570182Y-4247984D02*
X4589229Y-4257508D01*
X4589229Y-4257508D02*
X4598753Y-4267031D01*
X4598753Y-4267031D02*
X4608277Y-4286079D01*
X4608277Y-4286079D02*
X4617801Y-4324174D01*
X4617801Y-4324174D02*
X4617801Y-4371793D01*
X4617801Y-4371793D02*
X4608277Y-4409889D01*
X4608277Y-4409889D02*
X4598753Y-4428936D01*
X4598753Y-4428936D02*
X4589229Y-4438460D01*
X4589229Y-4438460D02*
X4570182Y-4447984D01*
X4570182Y-4447984D02*
X4551134Y-4447984D01*
X4551134Y-4447984D02*
X4532087Y-4438460D01*
X4532087Y-4438460D02*
X4522563Y-4428936D01*
X4522563Y-4428936D02*
X4513039Y-4409889D01*
X4513039Y-4409889D02*
X4503515Y-4371793D01*
X4503515Y-4371793D02*
X4503515Y-4324174D01*
X4503515Y-4324174D02*
X4513039Y-4286079D01*
X4513039Y-4286079D02*
X4522563Y-4267031D01*
X4522563Y-4267031D02*
X4532087Y-4257508D01*
X4532087Y-4257508D02*
X4551134Y-4247984D01*
X4703515Y-4428936D02*
X4713039Y-4438460D01*
X4713039Y-4438460D02*
X4703515Y-4447984D01*
X4703515Y-4447984D02*
X4693991Y-4438460D01*
X4693991Y-4438460D02*
X4703515Y-4428936D01*
X4703515Y-4428936D02*
X4703515Y-4447984D01*
X4836848Y-4247984D02*
X4855896Y-4247984D01*
X4855896Y-4247984D02*
X4874944Y-4257508D01*
X4874944Y-4257508D02*
X4884468Y-4267031D01*
X4884468Y-4267031D02*
X4893991Y-4286079D01*
X4893991Y-4286079D02*
X4903515Y-4324174D01*
X4903515Y-4324174D02*
X4903515Y-4371793D01*
X4903515Y-4371793D02*
X4893991Y-4409889D01*
X4893991Y-4409889D02*
X4884468Y-4428936D01*
X4884468Y-4428936D02*
X4874944Y-4438460D01*
X4874944Y-4438460D02*
X4855896Y-4447984D01*
X4855896Y-4447984D02*
X4836848Y-4447984D01*
X4836848Y-4447984D02*
X4817801Y-4438460D01*
X4817801Y-4438460D02*
X4808277Y-4428936D01*
X4808277Y-4428936D02*
X4798753Y-4409889D01*
X4798753Y-4409889D02*
X4789229Y-4371793D01*
X4789229Y-4371793D02*
X4789229Y-4324174D01*
X4789229Y-4324174D02*
X4798753Y-4286079D01*
X4798753Y-4286079D02*
X4808277Y-4267031D01*
X4808277Y-4267031D02*
X4817801Y-4257508D01*
X4817801Y-4257508D02*
X4836848Y-4247984D01*
X4970182Y-4247984D02*
X5093991Y-4247984D01*
X5093991Y-4247984D02*
X5027325Y-4324174D01*
X5027325Y-4324174D02*
X5055896Y-4324174D01*
X5055896Y-4324174D02*
X5074944Y-4333698D01*
X5074944Y-4333698D02*
X5084468Y-4343222D01*
X5084468Y-4343222D02*
X5093991Y-4362270D01*
X5093991Y-4362270D02*
X5093991Y-4409889D01*
X5093991Y-4409889D02*
X5084468Y-4428936D01*
X5084468Y-4428936D02*
X5074944Y-4438460D01*
X5074944Y-4438460D02*
X5055896Y-4447984D01*
X5055896Y-4447984D02*
X4998753Y-4447984D01*
X4998753Y-4447984D02*
X4979706Y-4438460D01*
X4979706Y-4438460D02*
X4970182Y-4428936D01*
X5284468Y-4447984D02*
X5170182Y-4447984D01*
X5227325Y-4447984D02*
X5227325Y-4247984D01*
X5227325Y-4247984D02*
X5208277Y-4276555D01*
X5208277Y-4276555D02*
X5189229Y-4295603D01*
X5189229Y-4295603D02*
X5170182Y-4305127D01*
X5465420Y-4247984D02*
X5370182Y-4247984D01*
X5370182Y-4247984D02*
X5360658Y-4343222D01*
X5360658Y-4343222D02*
X5370182Y-4333698D01*
X5370182Y-4333698D02*
X5389229Y-4324174D01*
X5389229Y-4324174D02*
X5436849Y-4324174D01*
X5436849Y-4324174D02*
X5455896Y-4333698D01*
X5455896Y-4333698D02*
X5465420Y-4343222D01*
X5465420Y-4343222D02*
X5474944Y-4362270D01*
X5474944Y-4362270D02*
X5474944Y-4409889D01*
X5474944Y-4409889D02*
X5465420Y-4428936D01*
X5465420Y-4428936D02*
X5455896Y-4438460D01*
X5455896Y-4438460D02*
X5436849Y-4447984D01*
X5436849Y-4447984D02*
X5389229Y-4447984D01*
X5389229Y-4447984D02*
X5370182Y-4438460D01*
X5370182Y-4438460D02*
X5360658Y-4428936D01*
X5551134Y-4247984D02*
X5551134Y-4286079D01*
X5627325Y-4247984D02*
X5627325Y-4286079D01*
X5922563Y-4524174D02*
X5913039Y-4514650D01*
X5913039Y-4514650D02*
X5893991Y-4486079D01*
X5893991Y-4486079D02*
X5884468Y-4467031D01*
X5884468Y-4467031D02*
X5874944Y-4438460D01*
X5874944Y-4438460D02*
X5865420Y-4390841D01*
X5865420Y-4390841D02*
X5865420Y-4352746D01*
X5865420Y-4352746D02*
X5874944Y-4305127D01*
X5874944Y-4305127D02*
X5884468Y-4276555D01*
X5884468Y-4276555D02*
X5893991Y-4257508D01*
X5893991Y-4257508D02*
X5913039Y-4228936D01*
X5913039Y-4228936D02*
X5922563Y-4219412D01*
X5979706Y-4247984D02*
X6113039Y-4247984D01*
X6113039Y-4247984D02*
X6027325Y-4447984D01*
X6341610Y-4447984D02*
X6341610Y-4247984D01*
X6427325Y-4447984D02*
X6427325Y-4343222D01*
X6427325Y-4343222D02*
X6417801Y-4324174D01*
X6417801Y-4324174D02*
X6398753Y-4314650D01*
X6398753Y-4314650D02*
X6370182Y-4314650D01*
X6370182Y-4314650D02*
X6351134Y-4324174D01*
X6351134Y-4324174D02*
X6341610Y-4333698D01*
X6551134Y-4447984D02*
X6532087Y-4438460D01*
X6532087Y-4438460D02*
X6522563Y-4428936D01*
X6522563Y-4428936D02*
X6513039Y-4409889D01*
X6513039Y-4409889D02*
X6513039Y-4352746D01*
X6513039Y-4352746D02*
X6522563Y-4333698D01*
X6522563Y-4333698D02*
X6532087Y-4324174D01*
X6532087Y-4324174D02*
X6551134Y-4314650D01*
X6551134Y-4314650D02*
X6579706Y-4314650D01*
X6579706Y-4314650D02*
X6598753Y-4324174D01*
X6598753Y-4324174D02*
X6608277Y-4333698D01*
X6608277Y-4333698D02*
X6617801Y-4352746D01*
X6617801Y-4352746D02*
X6617801Y-4409889D01*
X6617801Y-4409889D02*
X6608277Y-4428936D01*
X6608277Y-4428936D02*
X6598753Y-4438460D01*
X6598753Y-4438460D02*
X6579706Y-4447984D01*
X6579706Y-4447984D02*
X6551134Y-4447984D01*
X6732087Y-4447984D02*
X6713039Y-4438460D01*
X6713039Y-4438460D02*
X6703515Y-4419412D01*
X6703515Y-4419412D02*
X6703515Y-4247984D01*
X6884468Y-4438460D02*
X6865420Y-4447984D01*
X6865420Y-4447984D02*
X6827325Y-4447984D01*
X6827325Y-4447984D02*
X6808277Y-4438460D01*
X6808277Y-4438460D02*
X6798753Y-4419412D01*
X6798753Y-4419412D02*
X6798753Y-4343222D01*
X6798753Y-4343222D02*
X6808277Y-4324174D01*
X6808277Y-4324174D02*
X6827325Y-4314650D01*
X6827325Y-4314650D02*
X6865420Y-4314650D01*
X6865420Y-4314650D02*
X6884468Y-4324174D01*
X6884468Y-4324174D02*
X6893991Y-4343222D01*
X6893991Y-4343222D02*
X6893991Y-4362270D01*
X6893991Y-4362270D02*
X6798753Y-4381317D01*
X6970182Y-4438460D02*
X6989230Y-4447984D01*
X6989230Y-4447984D02*
X7027325Y-4447984D01*
X7027325Y-4447984D02*
X7046372Y-4438460D01*
X7046372Y-4438460D02*
X7055896Y-4419412D01*
X7055896Y-4419412D02*
X7055896Y-4409889D01*
X7055896Y-4409889D02*
X7046372Y-4390841D01*
X7046372Y-4390841D02*
X7027325Y-4381317D01*
X7027325Y-4381317D02*
X6998753Y-4381317D01*
X6998753Y-4381317D02*
X6979706Y-4371793D01*
X6979706Y-4371793D02*
X6970182Y-4352746D01*
X6970182Y-4352746D02*
X6970182Y-4343222D01*
X6970182Y-4343222D02*
X6979706Y-4324174D01*
X6979706Y-4324174D02*
X6998753Y-4314650D01*
X6998753Y-4314650D02*
X7027325Y-4314650D01*
X7027325Y-4314650D02*
X7046372Y-4324174D01*
X7122563Y-4524174D02*
X7132087Y-4514650D01*
X7132087Y-4514650D02*
X7151134Y-4486079D01*
X7151134Y-4486079D02*
X7160658Y-4467031D01*
X7160658Y-4467031D02*
X7170182Y-4438460D01*
X7170182Y-4438460D02*
X7179706Y-4390841D01*
X7179706Y-4390841D02*
X7179706Y-4352746D01*
X7179706Y-4352746D02*
X7170182Y-4305127D01*
X7170182Y-4305127D02*
X7160658Y-4276555D01*
X7160658Y-4276555D02*
X7151134Y-4257508D01*
X7151134Y-4257508D02*
X7132087Y-4228936D01*
X7132087Y-4228936D02*
X7122563Y-4219412D01*
M02*
