%TF.GenerationSoftware,KiCad,Pcbnew,9.0.7*%
%TF.CreationDate,2026-07-30T10:33:38-07:00*%
%TF.ProjectId,XEBookButtonBar,5845426f-6f6b-4427-9574-746f6e426172,rev?*%
%TF.SameCoordinates,Original*%
%TF.FileFunction,Legend,Top*%
%TF.FilePolarity,Positive*%
%FSLAX46Y46*%
G04 Gerber Fmt 4.6, Leading zero omitted, Abs format (unit mm)*
G04 Created by KiCad (PCBNEW 9.0.7) date 2026-07-30 10:33:38*
%MOMM*%
%LPD*%
G01*
G04 APERTURE LIST*
%ADD10C,0.150000*%
%ADD11C,0.120000*%
G04 APERTURE END LIST*
D10*
X107088095Y-25704819D02*
X107088095Y-25038152D01*
X107088095Y-25228628D02*
X107135714Y-25133390D01*
X107135714Y-25133390D02*
X107183333Y-25085771D01*
X107183333Y-25085771D02*
X107278571Y-25038152D01*
X107278571Y-25038152D02*
X107373809Y-25038152D01*
X107659524Y-25657200D02*
X107754762Y-25704819D01*
X107754762Y-25704819D02*
X107945238Y-25704819D01*
X107945238Y-25704819D02*
X108040476Y-25657200D01*
X108040476Y-25657200D02*
X108088095Y-25561961D01*
X108088095Y-25561961D02*
X108088095Y-25514342D01*
X108088095Y-25514342D02*
X108040476Y-25419104D01*
X108040476Y-25419104D02*
X107945238Y-25371485D01*
X107945238Y-25371485D02*
X107802381Y-25371485D01*
X107802381Y-25371485D02*
X107707143Y-25323866D01*
X107707143Y-25323866D02*
X107659524Y-25228628D01*
X107659524Y-25228628D02*
X107659524Y-25181009D01*
X107659524Y-25181009D02*
X107707143Y-25085771D01*
X107707143Y-25085771D02*
X107802381Y-25038152D01*
X107802381Y-25038152D02*
X107945238Y-25038152D01*
X107945238Y-25038152D02*
X108040476Y-25085771D01*
X108373810Y-25038152D02*
X108754762Y-25038152D01*
X108516667Y-24704819D02*
X108516667Y-25561961D01*
X108516667Y-25561961D02*
X108564286Y-25657200D01*
X108564286Y-25657200D02*
X108659524Y-25704819D01*
X108659524Y-25704819D02*
X108754762Y-25704819D01*
X78280953Y-24178152D02*
X78661905Y-24178152D01*
X78423810Y-24844819D02*
X78423810Y-23987676D01*
X78423810Y-23987676D02*
X78471429Y-23892438D01*
X78471429Y-23892438D02*
X78566667Y-23844819D01*
X78566667Y-23844819D02*
X78661905Y-23844819D01*
X79423810Y-24178152D02*
X79423810Y-24844819D01*
X78995239Y-24178152D02*
X78995239Y-24701961D01*
X78995239Y-24701961D02*
X79042858Y-24797200D01*
X79042858Y-24797200D02*
X79138096Y-24844819D01*
X79138096Y-24844819D02*
X79280953Y-24844819D01*
X79280953Y-24844819D02*
X79376191Y-24797200D01*
X79376191Y-24797200D02*
X79423810Y-24749580D01*
X79900001Y-24178152D02*
X79900001Y-25035295D01*
X79900001Y-25035295D02*
X79852382Y-25130533D01*
X79852382Y-25130533D02*
X79757144Y-25178152D01*
X79757144Y-25178152D02*
X79709525Y-25178152D01*
X79900001Y-23844819D02*
X79852382Y-23892438D01*
X79852382Y-23892438D02*
X79900001Y-23940057D01*
X79900001Y-23940057D02*
X79947620Y-23892438D01*
X79947620Y-23892438D02*
X79900001Y-23844819D01*
X79900001Y-23844819D02*
X79900001Y-23940057D01*
X80376191Y-24844819D02*
X80376191Y-24178152D01*
X80376191Y-23844819D02*
X80328572Y-23892438D01*
X80328572Y-23892438D02*
X80376191Y-23940057D01*
X80376191Y-23940057D02*
X80423810Y-23892438D01*
X80423810Y-23892438D02*
X80376191Y-23844819D01*
X80376191Y-23844819D02*
X80376191Y-23940057D01*
X47047619Y-24728152D02*
X47285714Y-25394819D01*
X47285714Y-25394819D02*
X47523809Y-24728152D01*
X48047619Y-25394819D02*
X47952381Y-25347200D01*
X47952381Y-25347200D02*
X47904762Y-25299580D01*
X47904762Y-25299580D02*
X47857143Y-25204342D01*
X47857143Y-25204342D02*
X47857143Y-24918628D01*
X47857143Y-24918628D02*
X47904762Y-24823390D01*
X47904762Y-24823390D02*
X47952381Y-24775771D01*
X47952381Y-24775771D02*
X48047619Y-24728152D01*
X48047619Y-24728152D02*
X48190476Y-24728152D01*
X48190476Y-24728152D02*
X48285714Y-24775771D01*
X48285714Y-24775771D02*
X48333333Y-24823390D01*
X48333333Y-24823390D02*
X48380952Y-24918628D01*
X48380952Y-24918628D02*
X48380952Y-25204342D01*
X48380952Y-25204342D02*
X48333333Y-25299580D01*
X48333333Y-25299580D02*
X48285714Y-25347200D01*
X48285714Y-25347200D02*
X48190476Y-25394819D01*
X48190476Y-25394819D02*
X48047619Y-25394819D01*
X48952381Y-25394819D02*
X48857143Y-25347200D01*
X48857143Y-25347200D02*
X48809524Y-25251961D01*
X48809524Y-25251961D02*
X48809524Y-24394819D01*
X85407143Y-25657200D02*
X85502381Y-25704819D01*
X85502381Y-25704819D02*
X85692857Y-25704819D01*
X85692857Y-25704819D02*
X85788095Y-25657200D01*
X85788095Y-25657200D02*
X85835714Y-25561961D01*
X85835714Y-25561961D02*
X85835714Y-25514342D01*
X85835714Y-25514342D02*
X85788095Y-25419104D01*
X85788095Y-25419104D02*
X85692857Y-25371485D01*
X85692857Y-25371485D02*
X85550000Y-25371485D01*
X85550000Y-25371485D02*
X85454762Y-25323866D01*
X85454762Y-25323866D02*
X85407143Y-25228628D01*
X85407143Y-25228628D02*
X85407143Y-25181009D01*
X85407143Y-25181009D02*
X85454762Y-25085771D01*
X85454762Y-25085771D02*
X85550000Y-25038152D01*
X85550000Y-25038152D02*
X85692857Y-25038152D01*
X85692857Y-25038152D02*
X85788095Y-25085771D01*
X86169048Y-25038152D02*
X86359524Y-25704819D01*
X86359524Y-25704819D02*
X86550000Y-25228628D01*
X86550000Y-25228628D02*
X86740476Y-25704819D01*
X86740476Y-25704819D02*
X86930952Y-25038152D01*
X87740476Y-25704819D02*
X87740476Y-25181009D01*
X87740476Y-25181009D02*
X87692857Y-25085771D01*
X87692857Y-25085771D02*
X87597619Y-25038152D01*
X87597619Y-25038152D02*
X87407143Y-25038152D01*
X87407143Y-25038152D02*
X87311905Y-25085771D01*
X87740476Y-25657200D02*
X87645238Y-25704819D01*
X87645238Y-25704819D02*
X87407143Y-25704819D01*
X87407143Y-25704819D02*
X87311905Y-25657200D01*
X87311905Y-25657200D02*
X87264286Y-25561961D01*
X87264286Y-25561961D02*
X87264286Y-25466723D01*
X87264286Y-25466723D02*
X87311905Y-25371485D01*
X87311905Y-25371485D02*
X87407143Y-25323866D01*
X87407143Y-25323866D02*
X87645238Y-25323866D01*
X87645238Y-25323866D02*
X87740476Y-25276247D01*
X88216667Y-25038152D02*
X88216667Y-26038152D01*
X88216667Y-25085771D02*
X88311905Y-25038152D01*
X88311905Y-25038152D02*
X88502381Y-25038152D01*
X88502381Y-25038152D02*
X88597619Y-25085771D01*
X88597619Y-25085771D02*
X88645238Y-25133390D01*
X88645238Y-25133390D02*
X88692857Y-25228628D01*
X88692857Y-25228628D02*
X88692857Y-25514342D01*
X88692857Y-25514342D02*
X88645238Y-25609580D01*
X88645238Y-25609580D02*
X88597619Y-25657200D01*
X88597619Y-25657200D02*
X88502381Y-25704819D01*
X88502381Y-25704819D02*
X88311905Y-25704819D01*
X88311905Y-25704819D02*
X88216667Y-25657200D01*
X39969048Y-25323866D02*
X40730953Y-25323866D01*
X40350000Y-25704819D02*
X40350000Y-24942914D01*
X96950000Y-25704819D02*
X96950000Y-24704819D01*
X96950000Y-25085771D02*
X97045238Y-25038152D01*
X97045238Y-25038152D02*
X97235714Y-25038152D01*
X97235714Y-25038152D02*
X97330952Y-25085771D01*
X97330952Y-25085771D02*
X97378571Y-25133390D01*
X97378571Y-25133390D02*
X97426190Y-25228628D01*
X97426190Y-25228628D02*
X97426190Y-25514342D01*
X97426190Y-25514342D02*
X97378571Y-25609580D01*
X97378571Y-25609580D02*
X97330952Y-25657200D01*
X97330952Y-25657200D02*
X97235714Y-25704819D01*
X97235714Y-25704819D02*
X97045238Y-25704819D01*
X97045238Y-25704819D02*
X96950000Y-25657200D01*
X97711905Y-25038152D02*
X98092857Y-25038152D01*
X97854762Y-24704819D02*
X97854762Y-25561961D01*
X97854762Y-25561961D02*
X97902381Y-25657200D01*
X97902381Y-25657200D02*
X97997619Y-25704819D01*
X97997619Y-25704819D02*
X98092857Y-25704819D01*
X29269048Y-25323866D02*
X30030953Y-25323866D01*
D11*
%TO.C,rst*%
X105100000Y-28000000D02*
X105100000Y-30000000D01*
X106150000Y-26700000D02*
X106600000Y-26250000D01*
X106150000Y-31300000D02*
X106600000Y-31750000D01*
X106600000Y-26250000D02*
X109100000Y-26250000D01*
X106600000Y-31750000D02*
X109100000Y-31750000D01*
X109550000Y-26700000D02*
X109100000Y-26250000D01*
X109550000Y-31300000D02*
X109100000Y-31750000D01*
X110600000Y-28000000D02*
X110600000Y-30000000D01*
%TO.C,fuji*%
X78290000Y-25390000D02*
X79400000Y-25390000D01*
X78290000Y-26500000D02*
X78290000Y-25390000D01*
X78290000Y-27500000D02*
X78290000Y-33610000D01*
X78290000Y-27500000D02*
X80510000Y-27500000D01*
X78290000Y-33610000D02*
X80510000Y-33610000D01*
X80510000Y-27500000D02*
X80510000Y-33610000D01*
%TO.C,vol*%
X46940000Y-25940000D02*
X48000000Y-25940000D01*
X46940000Y-27000000D02*
X46940000Y-25940000D01*
X46940000Y-28000000D02*
X46940000Y-32060000D01*
X46940000Y-28000000D02*
X49060000Y-28000000D01*
X46940000Y-32060000D02*
X49060000Y-32060000D01*
X49060000Y-28000000D02*
X49060000Y-32060000D01*
%TO.C,swap*%
X84300000Y-28000000D02*
X84300000Y-30000000D01*
X85350000Y-26700000D02*
X85800000Y-26250000D01*
X85350000Y-31300000D02*
X85800000Y-31750000D01*
X85800000Y-26250000D02*
X88300000Y-26250000D01*
X85800000Y-31750000D02*
X88300000Y-31750000D01*
X88750000Y-26700000D02*
X88300000Y-26250000D01*
X88750000Y-31300000D02*
X88300000Y-31750000D01*
X89800000Y-28000000D02*
X89800000Y-30000000D01*
%TO.C,+*%
X37600000Y-28000000D02*
X37600000Y-30000000D01*
X38650000Y-26700000D02*
X39100000Y-26250000D01*
X38650000Y-31300000D02*
X39100000Y-31750000D01*
X39100000Y-26250000D02*
X41600000Y-26250000D01*
X39100000Y-31750000D02*
X41600000Y-31750000D01*
X42050000Y-26700000D02*
X41600000Y-26250000D01*
X42050000Y-31300000D02*
X41600000Y-31750000D01*
X43100000Y-28000000D02*
X43100000Y-30000000D01*
%TO.C,bt*%
X94700000Y-28000000D02*
X94700000Y-30000000D01*
X95750000Y-26700000D02*
X96200000Y-26250000D01*
X95750000Y-31300000D02*
X96200000Y-31750000D01*
X96200000Y-26250000D02*
X98700000Y-26250000D01*
X96200000Y-31750000D02*
X98700000Y-31750000D01*
X99150000Y-26700000D02*
X98700000Y-26250000D01*
X99150000Y-31300000D02*
X98700000Y-31750000D01*
X100200000Y-28000000D02*
X100200000Y-30000000D01*
%TO.C,-*%
X26900000Y-28000000D02*
X26900000Y-30000000D01*
X27950000Y-26700000D02*
X28400000Y-26250000D01*
X27950000Y-31300000D02*
X28400000Y-31750000D01*
X28400000Y-26250000D02*
X30900000Y-26250000D01*
X28400000Y-31750000D02*
X30900000Y-31750000D01*
X31350000Y-26700000D02*
X30900000Y-26250000D01*
X31350000Y-31300000D02*
X30900000Y-31750000D01*
X32400000Y-28000000D02*
X32400000Y-30000000D01*
%TD*%
M02*
