%TF.GenerationSoftware,KiCad,Pcbnew,9.0.7*%
%TF.CreationDate,2026-08-02T16:28:12-07:00*%
%TF.ProjectId,XEBookButtonBar,5845426f-6f6b-4427-9574-746f6e426172,rev?*%
%TF.SameCoordinates,Original*%
%TF.FileFunction,Legend,Top*%
%TF.FilePolarity,Positive*%
%FSLAX46Y46*%
G04 Gerber Fmt 4.6, Leading zero omitted, Abs format (unit mm)*
G04 Created by KiCad (PCBNEW 9.0.7) date 2026-08-02 16:28:12*
%MOMM*%
%LPD*%
G01*
G04 APERTURE LIST*
%ADD10C,0.150000*%
%ADD11C,0.120000*%
G04 APERTURE END LIST*
D10*
X106611904Y-25704819D02*
X106611904Y-25038152D01*
X106611904Y-25228628D02*
X106659523Y-25133390D01*
X106659523Y-25133390D02*
X106707142Y-25085771D01*
X106707142Y-25085771D02*
X106802380Y-25038152D01*
X106802380Y-25038152D02*
X106897618Y-25038152D01*
X107183333Y-25657200D02*
X107278571Y-25704819D01*
X107278571Y-25704819D02*
X107469047Y-25704819D01*
X107469047Y-25704819D02*
X107564285Y-25657200D01*
X107564285Y-25657200D02*
X107611904Y-25561961D01*
X107611904Y-25561961D02*
X107611904Y-25514342D01*
X107611904Y-25514342D02*
X107564285Y-25419104D01*
X107564285Y-25419104D02*
X107469047Y-25371485D01*
X107469047Y-25371485D02*
X107326190Y-25371485D01*
X107326190Y-25371485D02*
X107230952Y-25323866D01*
X107230952Y-25323866D02*
X107183333Y-25228628D01*
X107183333Y-25228628D02*
X107183333Y-25181009D01*
X107183333Y-25181009D02*
X107230952Y-25085771D01*
X107230952Y-25085771D02*
X107326190Y-25038152D01*
X107326190Y-25038152D02*
X107469047Y-25038152D01*
X107469047Y-25038152D02*
X107564285Y-25085771D01*
X107897619Y-25038152D02*
X108278571Y-25038152D01*
X108040476Y-24704819D02*
X108040476Y-25561961D01*
X108040476Y-25561961D02*
X108088095Y-25657200D01*
X108088095Y-25657200D02*
X108183333Y-25704819D01*
X108183333Y-25704819D02*
X108278571Y-25704819D01*
X109135714Y-25704819D02*
X108564286Y-25704819D01*
X108850000Y-25704819D02*
X108850000Y-24704819D01*
X108850000Y-24704819D02*
X108754762Y-24847676D01*
X108754762Y-24847676D02*
X108659524Y-24942914D01*
X108659524Y-24942914D02*
X108564286Y-24990533D01*
X77804762Y-24178152D02*
X78185714Y-24178152D01*
X77947619Y-24844819D02*
X77947619Y-23987676D01*
X77947619Y-23987676D02*
X77995238Y-23892438D01*
X77995238Y-23892438D02*
X78090476Y-23844819D01*
X78090476Y-23844819D02*
X78185714Y-23844819D01*
X78947619Y-24178152D02*
X78947619Y-24844819D01*
X78519048Y-24178152D02*
X78519048Y-24701961D01*
X78519048Y-24701961D02*
X78566667Y-24797200D01*
X78566667Y-24797200D02*
X78661905Y-24844819D01*
X78661905Y-24844819D02*
X78804762Y-24844819D01*
X78804762Y-24844819D02*
X78900000Y-24797200D01*
X78900000Y-24797200D02*
X78947619Y-24749580D01*
X79423810Y-24178152D02*
X79423810Y-25035295D01*
X79423810Y-25035295D02*
X79376191Y-25130533D01*
X79376191Y-25130533D02*
X79280953Y-25178152D01*
X79280953Y-25178152D02*
X79233334Y-25178152D01*
X79423810Y-23844819D02*
X79376191Y-23892438D01*
X79376191Y-23892438D02*
X79423810Y-23940057D01*
X79423810Y-23940057D02*
X79471429Y-23892438D01*
X79471429Y-23892438D02*
X79423810Y-23844819D01*
X79423810Y-23844819D02*
X79423810Y-23940057D01*
X79900000Y-24844819D02*
X79900000Y-24178152D01*
X79900000Y-23844819D02*
X79852381Y-23892438D01*
X79852381Y-23892438D02*
X79900000Y-23940057D01*
X79900000Y-23940057D02*
X79947619Y-23892438D01*
X79947619Y-23892438D02*
X79900000Y-23844819D01*
X79900000Y-23844819D02*
X79900000Y-23940057D01*
X80899999Y-24844819D02*
X80328571Y-24844819D01*
X80614285Y-24844819D02*
X80614285Y-23844819D01*
X80614285Y-23844819D02*
X80519047Y-23987676D01*
X80519047Y-23987676D02*
X80423809Y-24082914D01*
X80423809Y-24082914D02*
X80328571Y-24130533D01*
X46571428Y-24728152D02*
X46809523Y-25394819D01*
X46809523Y-25394819D02*
X47047618Y-24728152D01*
X47571428Y-25394819D02*
X47476190Y-25347200D01*
X47476190Y-25347200D02*
X47428571Y-25299580D01*
X47428571Y-25299580D02*
X47380952Y-25204342D01*
X47380952Y-25204342D02*
X47380952Y-24918628D01*
X47380952Y-24918628D02*
X47428571Y-24823390D01*
X47428571Y-24823390D02*
X47476190Y-24775771D01*
X47476190Y-24775771D02*
X47571428Y-24728152D01*
X47571428Y-24728152D02*
X47714285Y-24728152D01*
X47714285Y-24728152D02*
X47809523Y-24775771D01*
X47809523Y-24775771D02*
X47857142Y-24823390D01*
X47857142Y-24823390D02*
X47904761Y-24918628D01*
X47904761Y-24918628D02*
X47904761Y-25204342D01*
X47904761Y-25204342D02*
X47857142Y-25299580D01*
X47857142Y-25299580D02*
X47809523Y-25347200D01*
X47809523Y-25347200D02*
X47714285Y-25394819D01*
X47714285Y-25394819D02*
X47571428Y-25394819D01*
X48476190Y-25394819D02*
X48380952Y-25347200D01*
X48380952Y-25347200D02*
X48333333Y-25251961D01*
X48333333Y-25251961D02*
X48333333Y-24394819D01*
X49380952Y-25394819D02*
X48809524Y-25394819D01*
X49095238Y-25394819D02*
X49095238Y-24394819D01*
X49095238Y-24394819D02*
X49000000Y-24537676D01*
X49000000Y-24537676D02*
X48904762Y-24632914D01*
X48904762Y-24632914D02*
X48809524Y-24680533D01*
X84930952Y-25657200D02*
X85026190Y-25704819D01*
X85026190Y-25704819D02*
X85216666Y-25704819D01*
X85216666Y-25704819D02*
X85311904Y-25657200D01*
X85311904Y-25657200D02*
X85359523Y-25561961D01*
X85359523Y-25561961D02*
X85359523Y-25514342D01*
X85359523Y-25514342D02*
X85311904Y-25419104D01*
X85311904Y-25419104D02*
X85216666Y-25371485D01*
X85216666Y-25371485D02*
X85073809Y-25371485D01*
X85073809Y-25371485D02*
X84978571Y-25323866D01*
X84978571Y-25323866D02*
X84930952Y-25228628D01*
X84930952Y-25228628D02*
X84930952Y-25181009D01*
X84930952Y-25181009D02*
X84978571Y-25085771D01*
X84978571Y-25085771D02*
X85073809Y-25038152D01*
X85073809Y-25038152D02*
X85216666Y-25038152D01*
X85216666Y-25038152D02*
X85311904Y-25085771D01*
X85692857Y-25038152D02*
X85883333Y-25704819D01*
X85883333Y-25704819D02*
X86073809Y-25228628D01*
X86073809Y-25228628D02*
X86264285Y-25704819D01*
X86264285Y-25704819D02*
X86454761Y-25038152D01*
X87264285Y-25704819D02*
X87264285Y-25181009D01*
X87264285Y-25181009D02*
X87216666Y-25085771D01*
X87216666Y-25085771D02*
X87121428Y-25038152D01*
X87121428Y-25038152D02*
X86930952Y-25038152D01*
X86930952Y-25038152D02*
X86835714Y-25085771D01*
X87264285Y-25657200D02*
X87169047Y-25704819D01*
X87169047Y-25704819D02*
X86930952Y-25704819D01*
X86930952Y-25704819D02*
X86835714Y-25657200D01*
X86835714Y-25657200D02*
X86788095Y-25561961D01*
X86788095Y-25561961D02*
X86788095Y-25466723D01*
X86788095Y-25466723D02*
X86835714Y-25371485D01*
X86835714Y-25371485D02*
X86930952Y-25323866D01*
X86930952Y-25323866D02*
X87169047Y-25323866D01*
X87169047Y-25323866D02*
X87264285Y-25276247D01*
X87740476Y-25038152D02*
X87740476Y-26038152D01*
X87740476Y-25085771D02*
X87835714Y-25038152D01*
X87835714Y-25038152D02*
X88026190Y-25038152D01*
X88026190Y-25038152D02*
X88121428Y-25085771D01*
X88121428Y-25085771D02*
X88169047Y-25133390D01*
X88169047Y-25133390D02*
X88216666Y-25228628D01*
X88216666Y-25228628D02*
X88216666Y-25514342D01*
X88216666Y-25514342D02*
X88169047Y-25609580D01*
X88169047Y-25609580D02*
X88121428Y-25657200D01*
X88121428Y-25657200D02*
X88026190Y-25704819D01*
X88026190Y-25704819D02*
X87835714Y-25704819D01*
X87835714Y-25704819D02*
X87740476Y-25657200D01*
X89169047Y-25704819D02*
X88597619Y-25704819D01*
X88883333Y-25704819D02*
X88883333Y-24704819D01*
X88883333Y-24704819D02*
X88788095Y-24847676D01*
X88788095Y-24847676D02*
X88692857Y-24942914D01*
X88692857Y-24942914D02*
X88597619Y-24990533D01*
X37802381Y-24704819D02*
X38135714Y-25704819D01*
X38135714Y-25704819D02*
X38469047Y-24704819D01*
X38945238Y-25704819D02*
X38850000Y-25657200D01*
X38850000Y-25657200D02*
X38802381Y-25609580D01*
X38802381Y-25609580D02*
X38754762Y-25514342D01*
X38754762Y-25514342D02*
X38754762Y-25228628D01*
X38754762Y-25228628D02*
X38802381Y-25133390D01*
X38802381Y-25133390D02*
X38850000Y-25085771D01*
X38850000Y-25085771D02*
X38945238Y-25038152D01*
X38945238Y-25038152D02*
X39088095Y-25038152D01*
X39088095Y-25038152D02*
X39183333Y-25085771D01*
X39183333Y-25085771D02*
X39230952Y-25133390D01*
X39230952Y-25133390D02*
X39278571Y-25228628D01*
X39278571Y-25228628D02*
X39278571Y-25514342D01*
X39278571Y-25514342D02*
X39230952Y-25609580D01*
X39230952Y-25609580D02*
X39183333Y-25657200D01*
X39183333Y-25657200D02*
X39088095Y-25704819D01*
X39088095Y-25704819D02*
X38945238Y-25704819D01*
X39850000Y-25704819D02*
X39754762Y-25657200D01*
X39754762Y-25657200D02*
X39707143Y-25561961D01*
X39707143Y-25561961D02*
X39707143Y-24704819D01*
X40230953Y-24704819D02*
X40230953Y-25514342D01*
X40230953Y-25514342D02*
X40278572Y-25609580D01*
X40278572Y-25609580D02*
X40326191Y-25657200D01*
X40326191Y-25657200D02*
X40421429Y-25704819D01*
X40421429Y-25704819D02*
X40611905Y-25704819D01*
X40611905Y-25704819D02*
X40707143Y-25657200D01*
X40707143Y-25657200D02*
X40754762Y-25609580D01*
X40754762Y-25609580D02*
X40802381Y-25514342D01*
X40802381Y-25514342D02*
X40802381Y-24704819D01*
X41278572Y-25704819D02*
X41278572Y-24704819D01*
X41278572Y-24704819D02*
X41659524Y-24704819D01*
X41659524Y-24704819D02*
X41754762Y-24752438D01*
X41754762Y-24752438D02*
X41802381Y-24800057D01*
X41802381Y-24800057D02*
X41850000Y-24895295D01*
X41850000Y-24895295D02*
X41850000Y-25038152D01*
X41850000Y-25038152D02*
X41802381Y-25133390D01*
X41802381Y-25133390D02*
X41754762Y-25181009D01*
X41754762Y-25181009D02*
X41659524Y-25228628D01*
X41659524Y-25228628D02*
X41278572Y-25228628D01*
X42802381Y-25704819D02*
X42230953Y-25704819D01*
X42516667Y-25704819D02*
X42516667Y-24704819D01*
X42516667Y-24704819D02*
X42421429Y-24847676D01*
X42421429Y-24847676D02*
X42326191Y-24942914D01*
X42326191Y-24942914D02*
X42230953Y-24990533D01*
X96473809Y-25704819D02*
X96473809Y-24704819D01*
X96473809Y-25085771D02*
X96569047Y-25038152D01*
X96569047Y-25038152D02*
X96759523Y-25038152D01*
X96759523Y-25038152D02*
X96854761Y-25085771D01*
X96854761Y-25085771D02*
X96902380Y-25133390D01*
X96902380Y-25133390D02*
X96949999Y-25228628D01*
X96949999Y-25228628D02*
X96949999Y-25514342D01*
X96949999Y-25514342D02*
X96902380Y-25609580D01*
X96902380Y-25609580D02*
X96854761Y-25657200D01*
X96854761Y-25657200D02*
X96759523Y-25704819D01*
X96759523Y-25704819D02*
X96569047Y-25704819D01*
X96569047Y-25704819D02*
X96473809Y-25657200D01*
X97235714Y-25038152D02*
X97616666Y-25038152D01*
X97378571Y-24704819D02*
X97378571Y-25561961D01*
X97378571Y-25561961D02*
X97426190Y-25657200D01*
X97426190Y-25657200D02*
X97521428Y-25704819D01*
X97521428Y-25704819D02*
X97616666Y-25704819D01*
X98473809Y-25704819D02*
X97902381Y-25704819D01*
X98188095Y-25704819D02*
X98188095Y-24704819D01*
X98188095Y-24704819D02*
X98092857Y-24847676D01*
X98092857Y-24847676D02*
X97997619Y-24942914D01*
X97997619Y-24942914D02*
X97902381Y-24990533D01*
X26530952Y-24704819D02*
X26864285Y-25704819D01*
X26864285Y-25704819D02*
X27197618Y-24704819D01*
X27673809Y-25704819D02*
X27578571Y-25657200D01*
X27578571Y-25657200D02*
X27530952Y-25609580D01*
X27530952Y-25609580D02*
X27483333Y-25514342D01*
X27483333Y-25514342D02*
X27483333Y-25228628D01*
X27483333Y-25228628D02*
X27530952Y-25133390D01*
X27530952Y-25133390D02*
X27578571Y-25085771D01*
X27578571Y-25085771D02*
X27673809Y-25038152D01*
X27673809Y-25038152D02*
X27816666Y-25038152D01*
X27816666Y-25038152D02*
X27911904Y-25085771D01*
X27911904Y-25085771D02*
X27959523Y-25133390D01*
X27959523Y-25133390D02*
X28007142Y-25228628D01*
X28007142Y-25228628D02*
X28007142Y-25514342D01*
X28007142Y-25514342D02*
X27959523Y-25609580D01*
X27959523Y-25609580D02*
X27911904Y-25657200D01*
X27911904Y-25657200D02*
X27816666Y-25704819D01*
X27816666Y-25704819D02*
X27673809Y-25704819D01*
X28578571Y-25704819D02*
X28483333Y-25657200D01*
X28483333Y-25657200D02*
X28435714Y-25561961D01*
X28435714Y-25561961D02*
X28435714Y-24704819D01*
X28959524Y-25704819D02*
X28959524Y-24704819D01*
X28959524Y-24704819D02*
X29197619Y-24704819D01*
X29197619Y-24704819D02*
X29340476Y-24752438D01*
X29340476Y-24752438D02*
X29435714Y-24847676D01*
X29435714Y-24847676D02*
X29483333Y-24942914D01*
X29483333Y-24942914D02*
X29530952Y-25133390D01*
X29530952Y-25133390D02*
X29530952Y-25276247D01*
X29530952Y-25276247D02*
X29483333Y-25466723D01*
X29483333Y-25466723D02*
X29435714Y-25561961D01*
X29435714Y-25561961D02*
X29340476Y-25657200D01*
X29340476Y-25657200D02*
X29197619Y-25704819D01*
X29197619Y-25704819D02*
X28959524Y-25704819D01*
X29864286Y-24704819D02*
X30102381Y-25704819D01*
X30102381Y-25704819D02*
X30292857Y-24990533D01*
X30292857Y-24990533D02*
X30483333Y-25704819D01*
X30483333Y-25704819D02*
X30721429Y-24704819D01*
X31102381Y-25704819D02*
X31102381Y-24704819D01*
X31102381Y-24704819D02*
X31673809Y-25704819D01*
X31673809Y-25704819D02*
X31673809Y-24704819D01*
X32673809Y-25704819D02*
X32102381Y-25704819D01*
X32388095Y-25704819D02*
X32388095Y-24704819D01*
X32388095Y-24704819D02*
X32292857Y-24847676D01*
X32292857Y-24847676D02*
X32197619Y-24942914D01*
X32197619Y-24942914D02*
X32102381Y-24990533D01*
D11*
%TO.C,rst1*%
X105100000Y-28000000D02*
X105100000Y-30000000D01*
X106150000Y-26700000D02*
X106600000Y-26250000D01*
X106150000Y-31300000D02*
X106600000Y-31750000D01*
X106600000Y-26250000D02*
X109100000Y-26250000D01*
X106600000Y-31750000D02*
X109100000Y-31750000D01*
X109550000Y-26700000D02*
X109100000Y-26250000D01*
X109550000Y-31300000D02*
X109100000Y-31750000D01*
X110600000Y-28000000D02*
X110600000Y-30000000D01*
%TO.C,fuji1*%
X78290000Y-25390000D02*
X79400000Y-25390000D01*
X78290000Y-26500000D02*
X78290000Y-25390000D01*
X78290000Y-27500000D02*
X78290000Y-33610000D01*
X78290000Y-27500000D02*
X80510000Y-27500000D01*
X78290000Y-33610000D02*
X80510000Y-33610000D01*
X80510000Y-27500000D02*
X80510000Y-33610000D01*
%TO.C,vol1*%
X46940000Y-25940000D02*
X48000000Y-25940000D01*
X46940000Y-27000000D02*
X46940000Y-25940000D01*
X46940000Y-28000000D02*
X46940000Y-32060000D01*
X46940000Y-28000000D02*
X49060000Y-28000000D01*
X46940000Y-32060000D02*
X49060000Y-32060000D01*
X49060000Y-28000000D02*
X49060000Y-32060000D01*
%TO.C,swap1*%
X84300000Y-28000000D02*
X84300000Y-30000000D01*
X85350000Y-26700000D02*
X85800000Y-26250000D01*
X85350000Y-31300000D02*
X85800000Y-31750000D01*
X85800000Y-26250000D02*
X88300000Y-26250000D01*
X85800000Y-31750000D02*
X88300000Y-31750000D01*
X88750000Y-26700000D02*
X88300000Y-26250000D01*
X88750000Y-31300000D02*
X88300000Y-31750000D01*
X89800000Y-28000000D02*
X89800000Y-30000000D01*
%TO.C,VolUP1*%
X37600000Y-28000000D02*
X37600000Y-30000000D01*
X38650000Y-26700000D02*
X39100000Y-26250000D01*
X38650000Y-31300000D02*
X39100000Y-31750000D01*
X39100000Y-26250000D02*
X41600000Y-26250000D01*
X39100000Y-31750000D02*
X41600000Y-31750000D01*
X42050000Y-26700000D02*
X41600000Y-26250000D01*
X42050000Y-31300000D02*
X41600000Y-31750000D01*
X43100000Y-28000000D02*
X43100000Y-30000000D01*
%TO.C,bt1*%
X94700000Y-28000000D02*
X94700000Y-30000000D01*
X95750000Y-26700000D02*
X96200000Y-26250000D01*
X95750000Y-31300000D02*
X96200000Y-31750000D01*
X96200000Y-26250000D02*
X98700000Y-26250000D01*
X96200000Y-31750000D02*
X98700000Y-31750000D01*
X99150000Y-26700000D02*
X98700000Y-26250000D01*
X99150000Y-31300000D02*
X98700000Y-31750000D01*
X100200000Y-28000000D02*
X100200000Y-30000000D01*
%TO.C,VolDWN1*%
X26900000Y-28000000D02*
X26900000Y-30000000D01*
X27950000Y-26700000D02*
X28400000Y-26250000D01*
X27950000Y-31300000D02*
X28400000Y-31750000D01*
X28400000Y-26250000D02*
X30900000Y-26250000D01*
X28400000Y-31750000D02*
X30900000Y-31750000D01*
X31350000Y-26700000D02*
X30900000Y-26250000D01*
X31350000Y-31300000D02*
X30900000Y-31750000D01*
X32400000Y-28000000D02*
X32400000Y-30000000D01*
%TD*%
M02*
