%TF.GenerationSoftware,KiCad,Pcbnew,9.0.7*%
%TF.CreationDate,2026-08-02T16:28:12-07:00*%
%TF.ProjectId,XEBookButtonBar,5845426f-6f6b-4427-9574-746f6e426172,rev?*%
%TF.SameCoordinates,Original*%
%TF.FileFunction,Drillmap*%
%TF.FilePolarity,Positive*%
%FSLAX45Y45*%
G04 Gerber Fmt 4.5, Leading zero omitted, Abs format (unit mm)*
G04 Created by KiCad (PCBNEW 9.0.7) date 2026-08-02 16:28:12*
%MOMM*%
%LPD*%
G01*
G04 APERTURE LIST*
%ADD10C,0.050000*%
%ADD11C,0.200000*%
G04 APERTURE END LIST*
D10*
X5100000Y-3250000D02*
X7650000Y-3250000D01*
X7650000Y-2250000D01*
X11400000Y-2250000D01*
X11400000Y-3450000D01*
X2350000Y-3450000D01*
X2350000Y-2250000D01*
X5100000Y-2250000D01*
X5100000Y-3250000D01*
D11*
X2608277Y-3763984D02*
X2608277Y-3563984D01*
X2608277Y-3563984D02*
X2655896Y-3563984D01*
X2655896Y-3563984D02*
X2684467Y-3573508D01*
X2684467Y-3573508D02*
X2703515Y-3592555D01*
X2703515Y-3592555D02*
X2713039Y-3611603D01*
X2713039Y-3611603D02*
X2722563Y-3649698D01*
X2722563Y-3649698D02*
X2722563Y-3678269D01*
X2722563Y-3678269D02*
X2713039Y-3716365D01*
X2713039Y-3716365D02*
X2703515Y-3735412D01*
X2703515Y-3735412D02*
X2684467Y-3754460D01*
X2684467Y-3754460D02*
X2655896Y-3763984D01*
X2655896Y-3763984D02*
X2608277Y-3763984D01*
X2808277Y-3763984D02*
X2808277Y-3630650D01*
X2808277Y-3668746D02*
X2817801Y-3649698D01*
X2817801Y-3649698D02*
X2827324Y-3640174D01*
X2827324Y-3640174D02*
X2846372Y-3630650D01*
X2846372Y-3630650D02*
X2865420Y-3630650D01*
X2932086Y-3763984D02*
X2932086Y-3630650D01*
X2932086Y-3563984D02*
X2922562Y-3573508D01*
X2922562Y-3573508D02*
X2932086Y-3583031D01*
X2932086Y-3583031D02*
X2941610Y-3573508D01*
X2941610Y-3573508D02*
X2932086Y-3563984D01*
X2932086Y-3563984D02*
X2932086Y-3583031D01*
X3055896Y-3763984D02*
X3036848Y-3754460D01*
X3036848Y-3754460D02*
X3027324Y-3735412D01*
X3027324Y-3735412D02*
X3027324Y-3563984D01*
X3160658Y-3763984D02*
X3141610Y-3754460D01*
X3141610Y-3754460D02*
X3132086Y-3735412D01*
X3132086Y-3735412D02*
X3132086Y-3563984D01*
X3389229Y-3763984D02*
X3389229Y-3563984D01*
X3389229Y-3563984D02*
X3455896Y-3706841D01*
X3455896Y-3706841D02*
X3522562Y-3563984D01*
X3522562Y-3563984D02*
X3522562Y-3763984D01*
X3703515Y-3763984D02*
X3703515Y-3659222D01*
X3703515Y-3659222D02*
X3693991Y-3640174D01*
X3693991Y-3640174D02*
X3674943Y-3630650D01*
X3674943Y-3630650D02*
X3636848Y-3630650D01*
X3636848Y-3630650D02*
X3617801Y-3640174D01*
X3703515Y-3754460D02*
X3684467Y-3763984D01*
X3684467Y-3763984D02*
X3636848Y-3763984D01*
X3636848Y-3763984D02*
X3617801Y-3754460D01*
X3617801Y-3754460D02*
X3608277Y-3735412D01*
X3608277Y-3735412D02*
X3608277Y-3716365D01*
X3608277Y-3716365D02*
X3617801Y-3697317D01*
X3617801Y-3697317D02*
X3636848Y-3687793D01*
X3636848Y-3687793D02*
X3684467Y-3687793D01*
X3684467Y-3687793D02*
X3703515Y-3678269D01*
X3798753Y-3630650D02*
X3798753Y-3830650D01*
X3798753Y-3640174D02*
X3817801Y-3630650D01*
X3817801Y-3630650D02*
X3855896Y-3630650D01*
X3855896Y-3630650D02*
X3874943Y-3640174D01*
X3874943Y-3640174D02*
X3884467Y-3649698D01*
X3884467Y-3649698D02*
X3893991Y-3668746D01*
X3893991Y-3668746D02*
X3893991Y-3725888D01*
X3893991Y-3725888D02*
X3884467Y-3744936D01*
X3884467Y-3744936D02*
X3874943Y-3754460D01*
X3874943Y-3754460D02*
X3855896Y-3763984D01*
X3855896Y-3763984D02*
X3817801Y-3763984D01*
X3817801Y-3763984D02*
X3798753Y-3754460D01*
X3979705Y-3744936D02*
X3989229Y-3754460D01*
X3989229Y-3754460D02*
X3979705Y-3763984D01*
X3979705Y-3763984D02*
X3970182Y-3754460D01*
X3970182Y-3754460D02*
X3979705Y-3744936D01*
X3979705Y-3744936D02*
X3979705Y-3763984D01*
X3979705Y-3640174D02*
X3989229Y-3649698D01*
X3989229Y-3649698D02*
X3979705Y-3659222D01*
X3979705Y-3659222D02*
X3970182Y-3649698D01*
X3970182Y-3649698D02*
X3979705Y-3640174D01*
X3979705Y-3640174D02*
X3979705Y-3659222D01*
M02*
